<svg xmlns="http://www.w3.org/2000/svg" width="57" height="57" viewBox="0 0 57 57"><g transform="translate(-0.498)"><circle cx="28.5" cy="28.5" r="28.5" transform="translate(0.498)" fill="#ffa659"/><g transform="translate(17 15)"><path d="M20.443,26H2.555a3.322,3.322,0,0,1-.512-.039,2.538,2.538,0,0,1-1.29-.715,2.766,2.766,0,0,1-.55-.832A2.708,2.708,0,0,1,0,23.4V5.2a2.541,2.541,0,0,1,.2-1,2.628,2.628,0,0,1,.55-.832,2.539,2.539,0,0,1,1.29-.715A2.139,2.139,0,0,1,2.555,2.6H7.9a3.8,3.8,0,0,1,7.207,0h5.341A2.582,2.582,0,0,1,23,5.2V23.4A2.581,2.581,0,0,1,20.443,26ZM2.555,5.2h0V23.4H20.445V5.2ZM11.5,2.276a.975.975,0,1,0,.958.975A.968.968,0,0,0,11.5,2.276ZM14.055,20.8H5.111V18.2h8.945v2.6Zm3.833-5.2H5.111V13H17.888v2.6Zm0-5.2H5.111V7.8H17.888v2.6Z" transform="translate(0.498 0)" fill="#fff"/></g></g></svg>