<svg xmlns="http://www.w3.org/2000/svg" width="18" height="20" viewBox="0 0 18 20"><path d="M833,175H819a2.644,2.644,0,0,1-.4-.03,2,2,0,0,1-1.01-.55,2.123,2.123,0,0,1-.43-.64A2.052,2.052,0,0,1,817,173V159a1.925,1.925,0,0,1,.159-.77,2.018,2.018,0,0,1,.43-.64,2,2,0,0,1,1.01-.55A1.7,1.7,0,0,1,819,157h4.18a2.988,2.988,0,0,1,5.64,0H833a2,2,0,0,1,2,2v14A2,2,0,0,1,833,175Zm-14-16h0v14h14V159Zm7-2.25a.75.75,0,1,0,.75.75A.751.751,0,0,0,826,156.75ZM828,171h-7v-2h7v2Zm3-4H821v-2h10v2Zm0-4H821v-2h10v2Z" transform="translate(-817 -155)" fill="#1a9182"/></svg>