<svg xmlns="http://www.w3.org/2000/svg" width="22" height="14.998" viewBox="0 0 22 14.998"><g transform="translate(-294.539 -412.51)"><path d="M305.54,412.51a11.542,11.542,0,0,0-3.64.57l-.03.01a19.826,19.826,0,0,0-1.92.86c-.1.05-.19.1-.29.16a7.9,7.9,0,0,0-1.43.95,11.757,11.757,0,0,0-3.69,4.95,11.827,11.827,0,0,0,15.32,6.68.031.031,0,0,0,.02-.01,14.156,14.156,0,0,0,1.83-.96,11.039,11.039,0,0,0,1.65-1.18v-.01a11.887,11.887,0,0,0,3.18-4.52A11.813,11.813,0,0,0,305.54,412.51Zm6.41,10.62a11.978,11.978,0,0,1-1.68,1.15,7.188,7.188,0,0,1-1.96.84.031.031,0,0,1-.02.01,11.12,11.12,0,0,1-2.75.38,9.786,9.786,0,0,1-8.82-5.5,9.833,9.833,0,0,1,2.93-3.53,8.331,8.331,0,0,1,1.79-1.04,16.281,16.281,0,0,1,2.11-.71,9.479,9.479,0,0,1,1.99-.22,9.75,9.75,0,0,1,8.82,5.5A9.768,9.768,0,0,1,311.95,423.13Z" fill="#1c988b"/><path d="M309.83,418.67a4.186,4.186,0,0,0-.34-.81,4.632,4.632,0,0,0-1.81-1.81,4.188,4.188,0,0,0-.81-.34c-.14-.04-.28-.08-.43-.11a4.431,4.431,0,0,0-.9-.09c-.14,0-.27.01-.41.02a2.569,2.569,0,0,0-.4.06,1.378,1.378,0,0,0-.26.06,4.551,4.551,0,0,0-1.87.95,4.5,4.5,0,0,0-1.55,3.4,4.63,4.63,0,0,0,.35,1.75,4.563,4.563,0,0,0,1.63,1.98,3.292,3.292,0,0,0,.76.41c.13.06.27.1.41.15a5.231,5.231,0,0,0,.66.15,5.061,5.061,0,0,0,.68.05,4.5,4.5,0,0,0,3.4-1.55,4.433,4.433,0,0,0,.95-1.87v-.03c.01-.02.01-.05.02-.08a2.555,2.555,0,0,0,.05-.27c0-.02.01-.05.01-.07a6.2,6.2,0,0,0,.06-.62,4.431,4.431,0,0,0-.09-.9C309.91,418.95,309.87,418.81,309.83,418.67Zm-2.33,2.83a2.445,2.445,0,0,1-1.85.98h-.11a2.48,2.48,0,0,1-2.48-2.48v-.11a2.4,2.4,0,0,1,.97-1.85,2.433,2.433,0,0,1,2.61-.27,2.213,2.213,0,0,1,.65.47.593.593,0,0,1,.15.17,2.063,2.063,0,0,1,.31.46,2.51,2.51,0,0,1,.27,1.13A2.4,2.4,0,0,1,307.5,421.5Z" fill="#1c988b"/></g></svg>