<svg xmlns="http://www.w3.org/2000/svg" width="20" height="14" viewBox="0 0 20 14"><g transform="translate(23798 6264.5)"><path d="M7,8.75c-2.34,0-7,1.17-7,3.5V14H14V12.25c0-2.33-4.66-3.5-7-3.5M2.34,12A9.642,9.642,0,0,1,7,10.75,9.642,9.642,0,0,1,11.66,12Z" transform="translate(-23798 -6264.5)" fill="#1a9182" fill-rule="evenodd"/><path d="M7,7A3.5,3.5,0,1,0,3.5,3.5,3.5,3.5,0,0,0,7,7M7,2A1.5,1.5,0,1,1,5.5,3.5,1.5,1.5,0,0,1,7,2" transform="translate(-23798 -6264.5)" fill="#1a9182" fill-rule="evenodd"/><path d="M14.04,8.81A4.193,4.193,0,0,1,16,12.25V14h4V12.25c0-2.02-3.5-3.17-5.96-3.44" transform="translate(-23798 -6264.5)" fill="#1a9182" fill-rule="evenodd"/><path d="M13,7a3.5,3.5,0,0,0,0-7,3.446,3.446,0,0,0-1.5.35,5.461,5.461,0,0,1,0,6.3A3.446,3.446,0,0,0,13,7" transform="translate(-23798 -6264.5)" fill="#1a9182" fill-rule="evenodd"/></g></svg>