<svg xmlns="http://www.w3.org/2000/svg" width="15.172" height="15.597" viewBox="0 0 15.172 15.597"><path d="M16.048,10.962A5.747,5.747,0,0,0,16.1,10.2a4.693,4.693,0,0,0-.057-.764l1.649-1.284a.4.4,0,0,0,.1-.5l-1.56-2.7a.4.4,0,0,0-.479-.179l-1.942.78A5.739,5.739,0,0,0,12.49,4.8L12.2,2.733a.393.393,0,0,0-.39-.333H8.688a.385.385,0,0,0-.382.333L8.014,4.8A5.865,5.865,0,0,0,6.7,5.56L4.756,4.78a.388.388,0,0,0-.479.179l-1.552,2.7a.369.369,0,0,0,.1.5L4.472,9.435a4.519,4.519,0,0,0-.016,1.527L2.807,12.246a.4.4,0,0,0-.1.5l1.56,2.7a.4.4,0,0,0,.479.179l1.942-.78a5.739,5.739,0,0,0,1.316.764L8.3,17.664a.4.4,0,0,0,.39.333h3.119a.379.379,0,0,0,.382-.333l.292-2.063a5.572,5.572,0,0,0,1.316-.764l1.942.78a.388.388,0,0,0,.479-.179l1.56-2.7a.376.376,0,0,0-.1-.5Zm-5.8,2.161A2.924,2.924,0,1,1,13.172,10.2,2.933,2.933,0,0,1,10.248,13.123Z" transform="translate(-2.662 -2.4)" fill="#1a9182"/></svg>