<svg xmlns="http://www.w3.org/2000/svg" width="21.225" height="19" viewBox="0 0 21.225 19"><g transform="translate(3599.5 55.089)"><path d="M11.818,18H10L14.091,7.2h1.818L20,18H18.182l-1.028-2.7H12.836L11.818,18ZM15,9.6l-1.473,3.9h2.946L15,9.6ZM2.727,15.3h0L1.436,14.022,6.064,9.5A15.783,15.783,0,0,1,3.355,5.4H5.173a14.061,14.061,0,0,0,2.1,3.015,14.061,14.061,0,0,0,2.883-4.823H0V1.8H6.363V0H8.181V1.8h6.364V3.6H11.882A15.649,15.649,0,0,1,8.509,9.477L8.482,9.5l2.309,2.259L10.1,13.6,7.272,10.8,2.728,15.3Z" transform="translate(-3599 -54.589)" fill="#1a9182" stroke="rgba(0,0,0,0)" stroke-width="1"/></g></svg>