<svg xmlns="http://www.w3.org/2000/svg" width="19" height="19" viewBox="0 0 19 19"><path d="M18,18H0V14.625c0-.922.585-2.255,3.374-3.373A16.7,16.7,0,0,1,9,10.125a16.7,16.7,0,0,1,5.627,1.127C17.415,12.37,18,13.7,18,14.625V18ZM9,12.262c-3.345,0-6.862,1.639-6.862,2.363v1.237H15.862V14.625C15.862,13.9,12.345,12.262,9,12.262ZM9,9a4.5,4.5,0,1,1,4.5-4.5A4.5,4.5,0,0,1,9,9ZM9,2.136A2.363,2.363,0,1,0,11.362,4.5,2.366,2.366,0,0,0,9,2.136Z" transform="translate(0.5 0.5)" fill="#1a9182" stroke="rgba(0,0,0,0)" stroke-width="1"/></svg>