<svg xmlns="http://www.w3.org/2000/svg" xmlns:xlink="http://www.w3.org/1999/xlink" width="60.833" height="60.833" viewBox="0 0 60.833 60.833"><defs><clipPath id="a"><circle cx="30.417" cy="30.417" r="30.417" transform="translate(-2829.251 -106)" fill="#d8d8d8"/></clipPath></defs><g transform="translate(2829.252 106)" clip-path="url(#a)"><circle cx="30.417" cy="30.417" r="30.417" transform="translate(-2829.251 -106)" fill="#d8d8d8"/><path d="M28.7,6.816a7.534,7.534,0,1,1-7.534,7.534A7.533,7.533,0,0,1,28.7,6.816m0,32.288c10.655,0,21.884,5.238,21.884,7.534v3.946H6.816V46.638c0-2.3,11.229-7.534,21.884-7.534M28.7,0a14.35,14.35,0,1,0,14.35,14.35A14.346,14.346,0,0,0,28.7,0m0,32.288C19.122,32.288,0,37.1,0,46.638V57.4H57.4V46.638c0-9.543-19.122-14.35-28.7-14.35" transform="translate(-2827.536 -94.396)" fill="#f7f8f9" fill-rule="evenodd"/></g></svg>